<svg width="460" height="180" viewBox="0 0 460 180" fill="none" xmlns="http://www.w3.org/2000/svg">
<g filter="url(#filter0_d_343_158)">
<path d="M135.22 129.168C135.556 129.498 135.892 129.828 136.06 130.323C136.228 130.817 136.396 131.147 136.396 131.642C136.396 132.136 136.396 132.466 136.06 132.961C135.892 133.455 135.556 133.785 135.22 134.115C134.884 134.445 134.38 134.774 134.044 134.939C133.54 135.104 133.204 135.269 132.7 135.269C132.196 135.269 131.692 135.269 131.356 135.104C130.852 134.939 130.516 134.61 130.18 134.28C129.004 133.126 127.828 132.301 126.484 131.807C125.14 131.312 123.796 130.982 122.284 130.982C120.772 130.982 119.428 131.312 118.084 131.807C116.74 132.301 115.564 133.126 114.556 134.115C113.548 135.104 112.708 136.258 112.204 137.577C111.7 138.896 111.364 140.38 111.364 141.864C111.364 143.348 111.7 144.667 112.204 145.986C112.708 147.305 113.548 148.459 114.556 149.449C115.564 150.438 116.74 151.262 118.084 151.757C119.428 152.417 120.772 152.582 122.452 152.746C123.964 152.746 125.308 152.581 126.652 152.087C127.996 151.592 129.172 150.768 130.348 149.614C130.684 149.284 131.02 148.954 131.524 148.954C132.028 148.789 132.364 148.789 132.868 148.789C133.372 148.789 133.876 148.789 134.212 148.954C134.716 149.119 135.052 149.284 135.388 149.614C135.724 149.943 136.06 150.438 136.228 150.768C136.396 151.262 136.564 151.592 136.564 152.087C136.564 152.581 136.396 153.076 136.228 153.406C136.06 153.901 135.724 154.23 135.388 154.56C133.54 156.374 131.524 157.693 129.172 158.517C126.988 159.342 124.636 159.836 122.116 159.836C119.596 159.836 117.244 159.342 115.06 158.352C112.876 157.363 110.86 156.044 109.348 154.56C107.668 152.911 106.324 150.933 105.484 148.789C104.476 146.646 103.972 144.337 103.972 141.699C103.972 140.051 104.14 138.567 104.644 137.083C104.98 135.599 105.652 134.115 106.492 132.796C107.332 131.477 108.172 130.158 109.348 129.168C110.524 128.179 111.7 127.025 113.044 126.201C114.388 125.376 115.9 124.717 117.412 124.222C119.092 123.727 120.772 123.562 122.452 123.562C124.804 123.562 127.156 124.057 129.34 124.882C131.356 126.036 133.54 127.355 135.22 129.168Z" fill="white"/>
<path d="M177.388 153.57H162.436L160.756 157.527C160.588 158.022 160.252 158.352 159.916 158.682C159.58 159.011 159.076 159.176 158.74 159.341C158.236 159.506 157.9 159.506 157.228 159.506C156.724 159.506 156.22 159.341 155.716 159.176C155.212 159.011 154.876 158.682 154.54 158.352C154.204 158.022 154.036 157.692 153.868 157.198C153.7 156.703 153.7 156.373 153.7 155.879C153.7 155.384 153.868 154.889 154.036 154.395L166.468 126.2C166.804 125.541 167.308 124.881 167.812 124.551C168.316 124.222 168.988 124.057 169.828 124.057C170.5 124.057 171.172 124.222 171.844 124.551C172.516 124.881 172.852 125.541 173.188 126.2L185.62 154.56C185.788 155.054 185.956 155.549 185.956 156.043C185.956 156.538 185.956 157.033 185.788 157.363C185.62 157.857 185.452 158.187 185.116 158.517C184.78 158.846 184.444 159.176 183.94 159.341C183.436 159.506 182.932 159.671 182.428 159.671C181.924 159.671 181.42 159.671 181.084 159.506C180.58 159.341 180.244 159.011 179.908 158.846C179.572 158.517 179.236 158.187 179.068 157.692L177.388 153.57ZM165.292 146.316H174.364L169.828 135.598L165.292 146.316Z" fill="white"/>
<path d="M216.533 145.822C214.517 145.492 212.669 144.997 211.157 144.503C209.477 143.843 208.133 143.184 207.125 142.194C205.949 141.37 205.109 140.216 204.605 139.062C203.933 137.907 203.765 136.424 203.765 134.94C203.765 133.291 204.101 131.807 204.773 130.488C205.445 129.169 206.285 128.015 207.461 127.025C208.637 126.036 209.981 125.212 211.493 124.717C213.005 124.222 214.685 123.893 216.365 123.893C217.541 123.893 218.549 124.057 219.725 124.222C220.901 124.387 221.909 124.717 222.917 125.212C223.925 125.706 224.765 126.201 225.605 126.86C226.445 127.52 227.117 128.344 227.621 129.169C227.789 129.499 227.957 129.828 227.957 130.158C227.957 130.488 227.957 130.818 227.957 131.147C227.957 131.477 227.789 131.807 227.621 132.137C227.453 132.466 227.285 132.631 226.949 132.961C226.781 133.126 226.445 133.456 226.109 133.621C225.773 133.785 225.437 133.95 224.933 133.95C224.597 133.95 224.093 133.95 223.589 133.785C223.085 133.621 222.749 133.456 222.413 133.291C221.909 132.961 221.405 132.631 221.069 132.466C220.733 132.137 220.229 131.972 219.893 131.807C219.557 131.642 219.053 131.477 218.549 131.477C218.045 131.312 217.373 131.312 216.701 131.312C215.861 131.312 215.189 131.477 214.517 131.642C213.845 131.807 213.341 132.137 212.837 132.466C212.333 132.796 211.997 133.126 211.829 133.621C211.661 134.115 211.493 134.61 211.493 135.104C211.493 135.764 211.661 136.259 211.997 136.753C212.333 137.248 212.837 137.578 213.509 137.743C214.181 138.072 215.021 138.237 216.029 138.567C217.037 138.732 218.213 139.062 219.389 139.226C220.733 139.556 221.909 139.886 223.085 140.381C224.261 140.875 225.437 141.535 226.445 142.194C227.453 143.019 228.125 144.008 228.797 144.997C229.469 145.987 229.637 147.47 229.637 149.119C229.637 150.603 229.301 152.087 228.629 153.406C227.957 154.725 227.117 155.879 225.941 156.869C224.765 157.858 223.421 158.682 221.741 159.177C220.061 159.837 218.381 160.001 216.533 160.001C215.021 160.001 213.677 159.837 212.333 159.507C210.989 159.177 209.813 158.682 208.637 158.023C207.461 157.363 206.621 156.704 205.781 155.879C204.941 155.055 204.269 154.066 203.933 153.241C203.597 152.747 203.429 152.087 203.429 151.593C203.429 151.098 203.429 150.603 203.597 150.109C203.765 149.614 203.933 149.284 204.269 148.954C204.605 148.625 204.941 148.295 205.277 148.13C206.117 147.635 207.125 147.471 207.797 147.8C208.637 148.13 209.477 148.79 210.317 149.779C211.157 150.768 211.997 151.593 213.005 152.087C214.013 152.582 215.357 152.912 216.701 152.912C217.373 152.912 218.045 152.912 218.717 152.747C219.389 152.582 219.893 152.417 220.565 152.087C221.237 151.757 221.573 151.428 221.741 150.933C222.077 150.438 222.245 149.944 222.245 149.449C222.245 148.79 222.077 148.13 221.741 147.8C221.405 147.471 221.069 147.141 220.565 146.811C220.061 146.646 219.557 146.481 218.885 146.316C217.709 145.987 217.205 145.822 216.533 145.822Z" fill="white"/>
<path d="M256.349 156.044C256.349 156.539 256.181 157.034 256.013 157.528C255.845 158.023 255.509 158.353 255.173 158.682C254.837 159.012 254.501 159.177 253.997 159.507C253.493 159.672 253.157 159.837 252.485 159.837C251.981 159.837 251.477 159.672 250.973 159.507C250.469 159.342 250.133 159.012 249.797 158.682C249.461 158.353 249.125 158.023 248.957 157.528C248.789 157.034 248.621 156.704 248.621 156.044V127.685C248.621 127.19 248.789 126.696 248.957 126.201C249.125 125.706 249.461 125.376 249.797 125.047C250.133 124.717 250.469 124.552 250.973 124.222C251.477 123.893 251.813 123.893 252.485 123.893C252.989 123.893 253.493 124.057 253.997 124.222C254.501 124.387 254.837 124.717 255.173 125.047C255.509 125.376 255.845 125.706 256.013 126.201C256.181 126.696 256.349 127.025 256.349 127.685V156.044Z" fill="white"/>
<path d="M285.413 137.082V156.043C285.413 156.538 285.245 157.032 285.077 157.527C284.909 158.022 284.573 158.351 284.237 158.681C283.901 159.011 283.565 159.176 283.061 159.506C282.557 159.671 282.221 159.835 281.549 159.835C281.045 159.835 280.541 159.671 280.037 159.506C279.533 159.341 279.197 159.011 278.861 158.681C278.525 158.351 278.189 158.022 278.021 157.527C277.853 157.032 277.685 156.703 277.685 156.043V127.684C277.685 127.189 277.685 126.859 277.853 126.365C278.021 126.035 278.189 125.54 278.525 125.375C278.861 125.046 279.197 124.716 279.701 124.386C280.205 124.221 280.709 124.056 281.381 124.056C281.885 124.056 282.389 124.221 282.893 124.386C283.397 124.551 283.901 124.881 284.237 125.375L302.381 146.15V127.519C302.381 127.024 302.549 126.53 302.717 126.035C302.885 125.54 303.221 125.21 303.557 124.881C303.893 124.551 304.229 124.386 304.733 124.056C305.237 123.891 305.741 123.727 306.245 123.727C306.749 123.727 307.253 123.891 307.757 124.056C308.261 124.221 308.597 124.551 308.933 124.881C309.269 125.21 309.437 125.54 309.773 126.035C309.941 126.53 310.109 126.859 310.109 127.519V155.878C310.109 156.373 309.941 156.868 309.773 157.362C309.605 157.857 309.269 158.187 308.765 158.516C308.429 158.846 308.261 159.011 307.757 159.176C307.421 159.341 306.917 159.341 306.413 159.341H306.245H305.909C305.405 159.341 305.069 159.176 304.565 159.011C304.229 158.846 303.893 158.516 303.557 158.022L285.413 137.082Z" fill="white"/>
<path d="M348.919 123.893C350.599 123.893 352.279 124.057 353.791 124.552C355.303 125.047 356.815 125.541 358.159 126.366C359.503 127.19 360.847 128.015 361.855 129.169C363.031 130.323 363.871 131.477 364.711 132.796C365.551 134.115 366.055 135.599 366.559 137.083C367.063 138.567 367.231 140.216 367.231 141.865C367.231 144.338 366.727 146.646 365.719 148.954C364.711 151.098 363.367 153.076 361.687 154.725C360.007 156.374 357.991 157.693 355.807 158.518C353.623 159.507 351.103 160.001 348.583 160.001C346.063 160.001 343.711 159.507 341.359 158.518C339.175 157.528 337.159 156.209 335.479 154.725C333.799 153.076 332.455 151.098 331.615 148.954C330.607 146.811 330.271 144.503 330.271 141.865C330.271 140.216 330.439 138.567 330.943 137.083C331.447 135.599 331.951 134.115 332.791 132.796C333.631 131.477 334.471 130.158 335.647 129.169C336.823 128.015 337.999 127.19 339.343 126.366C340.687 125.541 342.199 125.047 343.711 124.552C345.559 124.057 347.239 123.893 348.919 123.893ZM348.919 130.982C347.407 130.982 345.895 131.312 344.551 131.807C343.207 132.301 342.031 133.126 341.023 134.115C340.015 135.104 339.175 136.259 338.671 137.578C338.167 138.897 337.831 140.381 337.831 141.865C337.831 143.348 338.167 144.832 338.671 146.151C339.175 147.471 340.015 148.625 341.023 149.614C342.031 150.603 343.207 151.428 344.551 151.922C345.895 152.417 347.407 152.747 348.919 152.747C350.431 152.747 351.943 152.417 353.287 151.922C354.631 151.428 355.807 150.603 356.815 149.614C357.823 148.625 358.663 147.471 359.167 146.151C359.671 144.832 360.007 143.348 360.007 141.865C360.007 140.381 359.671 138.897 359.167 137.578C358.663 136.259 357.823 135.104 356.815 134.115C355.807 133.126 354.631 132.301 353.287 131.807C351.943 131.312 350.431 130.982 348.919 130.982Z" fill="white"/>
<path d="M165.797 12.0994C150.845 11.4399 135.893 12.0994 120.941 11.7696C114.22 11.1101 106.66 15.5619 105.988 22.4869C105.652 34.1934 106.156 45.8999 105.988 57.6064C105.82 70.1374 105.988 82.5034 105.988 95.0343C105.316 101.959 111.868 108.39 118.925 107.73C133.877 107.73 148.997 107.895 164.117 107.73C171.005 107.895 176.213 100.146 173.861 93.8802C172.853 89.0986 168.485 86.1308 163.781 85.6361C153.029 84.9766 142.109 85.6361 131.357 85.3064C131.189 76.2379 131.525 67.1695 131.357 58.1011C131.357 50.3517 131.357 42.4374 131.357 34.688C142.949 34.5232 154.373 34.8529 165.797 34.5232C178.229 33.0392 178.061 13.4184 165.797 12.0994Z" fill="url(#paint0_linear_343_158)"/>
<path d="M428.887 11.9346C413.767 11.6049 398.646 11.7697 383.526 11.7697C377.646 11.9346 371.262 15.8918 370.758 21.9923C369.582 33.8637 370.758 45.7351 370.254 57.7714C370.254 70.3024 369.918 82.8333 370.422 95.1993C370.422 101.135 374.958 107.236 381.342 107.4C396.294 107.73 411.414 107.4 426.367 107.565C429.727 107.895 433.423 106.906 435.775 104.268C441.823 98.8267 438.799 87.6148 430.735 85.8011C419.311 84.1523 407.718 85.4714 396.126 84.9767C395.958 75.9083 396.462 66.675 395.958 57.6065C395.118 49.8572 395.622 42.1078 395.622 34.3584C406.71 34.3584 417.631 34.5233 428.719 34.3584C433.927 34.1935 439.471 30.2364 439.807 24.7953C441.151 18.365 435.271 12.0995 428.887 11.9346Z" fill="url(#paint1_linear_343_158)"/>
<path d="M154.876 70.1367C163.444 67.4986 169.324 60.2439 173.188 52.6594C173.524 48.7022 168.82 49.032 166.132 48.0427C158.404 46.5588 149.5 45.7344 142.612 50.0213C138.916 52.8243 138.412 57.6058 137.74 61.7278C144.796 57.7707 152.524 55.1326 160.588 55.4623C153.868 58.7599 146.14 60.7385 141.1 66.3444C143.62 71.2909 150.004 71.126 154.876 70.1367Z" fill="url(#paint2_linear_343_158)"/>
<path d="M412.59 70.6323C422.334 72.1163 430.398 64.6966 435.102 57.277C435.942 55.1336 439.302 52.0008 436.782 49.8574C428.718 47.0544 419.982 45.9003 411.75 47.8788C405.702 49.5276 402.51 55.7931 402.678 61.5639C409.566 57.9365 416.958 54.8038 425.022 55.6282C418.638 58.1014 412.086 60.4097 407.046 64.8615C404.19 68.324 409.902 70.4675 412.59 70.6323Z" fill="url(#paint3_linear_343_158)"/>
<path d="M362.358 52.0018C360.342 36.6679 349.59 23.3126 335.142 17.212C320.862 10.6168 304.734 11.9358 289.278 11.9358C282.894 11.4412 276.174 16.0578 275.502 22.3233C275.166 32.0512 275.502 41.6143 275.502 51.3423C275.502 66.6762 275.334 82.0101 275.67 97.344C276.006 104.104 282.894 108.391 289.278 108.061C306.246 108.226 324.558 109.545 339.678 100.312C356.646 90.7487 365.718 70.6333 362.358 52.0018ZM329.094 78.8773C321.702 86.1321 310.446 85.9672 300.702 85.6374C300.534 74.0958 300.702 62.719 300.534 51.1774C300.534 45.7363 300.534 40.4601 300.534 35.0191C308.094 34.8542 316.158 34.0298 323.214 37.3274C329.766 39.9655 334.302 46.0661 336.15 52.6613C337.83 61.7297 336.486 72.2821 329.094 78.8773Z" fill="url(#paint4_linear_343_158)"/>
<path d="M248.957 70.9625C249.965 69.8084 252.653 67.5001 253.829 66.181C265.421 52.8257 263.741 30.5668 249.293 19.8496C235.181 9.13233 216.365 12.2651 199.732 11.7704C193.012 11.1109 186.124 15.7275 185.284 22.4877C184.948 36.6674 185.452 50.8471 185.284 64.862C185.116 74.9197 185.284 84.9774 185.284 95.0351C185.116 98.3327 185.62 101.96 187.636 104.763C192.676 112.348 206.284 111.358 209.812 102.785C212.164 94.8702 210.82 86.6262 211.156 78.5471C215.693 78.3822 220.229 78.3822 224.765 78.5471C233.165 87.4506 239.717 98.1679 249.293 106.082C258.365 112.677 271.301 103.279 267.941 92.8917C262.565 84.6476 254.165 78.8768 248.957 70.9625ZM228.797 55.4638C223.085 56.9477 217.037 56.4531 211.156 56.6179C210.652 49.0334 210.988 41.4489 211.156 33.8644C217.373 34.1942 223.757 33.04 229.637 34.8537C238.205 38.1513 237.869 52.8257 228.797 55.4638Z" fill="url(#paint5_linear_343_158)"/>
<path d="M83.1403 10.4517C75.0763 11.7708 73.2283 20.6743 70.5403 26.9398C66.0042 39.4707 59.7882 51.3421 55.9242 64.0379C55.9242 64.0379 55.5882 65.0272 54.7482 65.1921H54.5802C53.5722 65.1921 53.0681 64.3677 52.9001 63.7082C46.6841 49.0338 40.6361 33.3701 34.588 18.8607C32.404 12.5952 24.844 8.14341 18.2919 10.9464C11.9079 12.9249 8.37987 20.3446 10.7319 26.61C16.1079 39.9654 21.82 52.9909 27.196 66.3463C32.236 78.8772 37.444 91.4081 42.8201 103.774C46.8521 112.678 61.1322 112.678 65.5002 103.939C71.2123 91.573 76.2523 78.8772 81.4603 66.3463C87.0044 52.9909 92.8844 39.6356 98.0924 26.1154C100.948 17.2119 92.2124 7.81366 83.1403 10.4517Z" fill="url(#paint6_linear_343_158)"/>
</g>
<defs>
<filter id="filter0_d_343_158" x="0" y="0" width="460" height="180.001" filterUnits="userSpaceOnUse" color-interpolation-filters="sRGB">
<feFlood flood-opacity="0" result="BackgroundImageFix"/>
<feColorMatrix in="SourceAlpha" type="matrix" values="0 0 0 0 0 0 0 0 0 0 0 0 0 0 0 0 0 0 127 0" result="hardAlpha"/>
<feOffset dx="5" dy="5"/>
<feGaussianBlur stdDeviation="7.5"/>
<feComposite in2="hardAlpha" operator="out"/>
<feColorMatrix type="matrix" values="0 0 0 0 0.00392157 0 0 0 0 0.117647 0 0 0 0 0.129412 0 0 0 0.5 0"/>
<feBlend mode="normal" in2="BackgroundImageFix" result="effect1_dropShadow_343_158"/>
<feBlend mode="normal" in="SourceGraphic" in2="effect1_dropShadow_343_158" result="shape"/>
</filter>
<linearGradient id="paint0_linear_343_158" x1="140.52" y1="107.571" x2="140.52" y2="11.6798" gradientUnits="userSpaceOnUse">
<stop offset="0.2207" stop-color="#7DCE06"/>
<stop offset="0.8128" stop-color="#92D505"/>
</linearGradient>
<linearGradient id="paint1_linear_343_158" x1="405.093" y1="107.595" x2="405.093" y2="11.7399" gradientUnits="userSpaceOnUse">
<stop offset="0.2207" stop-color="#7DCE06"/>
<stop offset="0.8128" stop-color="#92D505"/>
</linearGradient>
<linearGradient id="paint2_linear_343_158" x1="155.421" y1="70.709" x2="155.421" y2="46.816" gradientUnits="userSpaceOnUse">
<stop offset="0.2207" stop-color="#7DCE06"/>
<stop offset="0.8128" stop-color="#92D505"/>
</linearGradient>
<linearGradient id="paint3_linear_343_158" x1="420.107" y1="70.7555" x2="420.107" y2="46.8686" gradientUnits="userSpaceOnUse">
<stop offset="0.2207" stop-color="#7DCE06"/>
<stop offset="0.8128" stop-color="#92D505"/>
</linearGradient>
<linearGradient id="paint4_linear_343_158" x1="319.233" y1="108.101" x2="319.233" y2="11.704" gradientUnits="userSpaceOnUse">
<stop offset="0.2207" stop-color="#7DCE06"/>
<stop offset="0.8128" stop-color="#92D505"/>
</linearGradient>
<linearGradient id="paint5_linear_343_158" x1="226.71" y1="109.856" x2="226.71" y2="11.7074" gradientUnits="userSpaceOnUse">
<stop offset="0.2207" stop-color="#7DCE06"/>
<stop offset="0.8128" stop-color="#92D505"/>
</linearGradient>
<linearGradient id="paint6_linear_343_158" x1="9.89188" y1="60.1154" x2="98.503" y2="60.1154" gradientUnits="userSpaceOnUse">
<stop offset="0.1872" stop-color="#92D505"/>
<stop offset="0.7793" stop-color="#7DCE06"/>
</linearGradient>
</defs>
</svg>
